<?xml version="1.0"?>
<svg xmlns="http://www.w3.org/2000/svg" xmlns:xlink="http://www.w3.org/1999/xlink" version="1.1" id="Capa_1" x="0px" y="0px" viewBox="0 0 496 496" style="enable-background:new 0 0 496 496;" xml:space="preserve" width="512px" height="512px"><g><path style="fill:#FFA64D;" d="M496,368H320V208h176V368z" data-original="#FFA64D"/><g>
	<path style="fill:#AC222F" d="M440,272c0-17.648-14.352-32-32-32s-32,14.352-32,32c0,14.872,10.232,27.288,24,30.864V336h16   v-33.136C429.768,299.288,440,286.872,440,272z M408,288c-8.824,0-16-7.176-16-16s7.176-16,16-16s16,7.176,16,16   S416.824,288,408,288z" data-original="#333333" class="active-path" data-old_color="##AC222"/>
	<rect x="56" y="432" style="fill:#AC222F" width="176" height="16" data-original="#333333" class="active-path" data-old_color="##AC222"/>
	<rect x="248" y="432" style="fill:#AC222F" width="16" height="16" data-original="#333333" class="active-path" data-old_color="##AC222"/>
	<path style="fill:#AC222F" d="M408,64c-22.424,0-42.712,10.384-56,26.792V0H56C25.128,0,0,25.128,0,56v384   c0,30.872,25.128,56,56,56h280h16v-16h-16c-22.056,0-40-17.944-40-40s17.944-40,40-40h16v-8v-8v-16h-16v16H56   c-15.664,0-29.824,6.48-40,16.888V179.552C20.728,182.304,26.144,184,32,184h16v40h256v-44.448c4.728,2.752,10.144,4.448,16,4.448   h16v24h16v-24c5.856,0,11.272-1.696,16-4.448V208h16v-72c0-13.232,10.768-24,24-24s24,10.768,24,24v72h16v-72   c0-22.056-17.944-40-40-40c-18.336,0-33.672,12.48-38.376,29.336c-4.448-2.952-9.704-4.696-15.336-5.104   C361.16,96.784,382.848,80,408,80c30.872,0,56,25.128,56,56v72h16v-72C480,96.296,447.704,64,408,64z M56,400h240.888   C286.48,410.176,280,424.336,280,440s6.48,29.824,16.888,40H56c-22.056,0-40-17.944-40-40S33.944,400,56,400z M32,168   c-8.824,0-16-7.176-16-16s7.176-16,16-16h32c5.896,0,11,3.24,13.776,8H56v16h21.776c-2.776,4.76-7.88,8-13.776,8H32z M288,208H64   v-24c14.872,0,27.288-10.232,30.864-24h2.272c3.576,13.768,15.992,24,30.864,24h32c14.872,0,27.288-10.232,30.864-24h2.272   c3.576,13.768,15.992,24,30.864,24h32c14.872,0,27.288-10.232,30.864-24H288V208z M114.224,144c2.776-4.76,7.88-8,13.776-8h32   c5.896,0,11,3.24,13.776,8H152v16h21.776c-2.776,4.76-7.88,8-13.776,8h-32c-5.896,0-11-3.24-13.776-8H136v-16H114.224z    M210.224,144c2.776-4.76,7.88-8,13.776-8h32c5.896,0,11,3.24,13.776,8H248v16h21.776c-2.776,4.76-7.88,8-13.776,8h-32   c-5.896,0-11-3.24-13.776-8H232v-16H210.224z M288,144h-1.136c-3.576-13.768-15.992-24-30.864-24h-32   c-14.872,0-27.288,10.232-30.864,24h-2.272c-3.576-13.768-15.992-24-30.864-24h-32c-14.872,0-27.288,10.232-30.864,24h-2.272   C91.288,130.232,78.872,120,64,120V64h224V144z M48,48v72H32c-5.856,0-11.272,1.696-16,4.448V56c0-22.056,17.944-40,40-40h280v104   h-16c-5.856,0-11.272,1.696-16,4.448V48H48z M368,152c0,8.824-7.176,16-16,16h-32c-5.896,0-11-3.24-13.776-8H328v-16h-21.776   c2.776-4.76,7.88-8,13.776-8h32C360.824,136,368,143.176,368,152z" data-original="#333333" class="active-path" data-old_color="##AC222"/>
</g></g> </svg>
