<?xml version="1.0" encoding="iso-8859-1"?>
<!-- Generator: Adobe Illustrator 19.0.0, SVG Export Plug-In . SVG Version: 6.00 Build 0)  -->
<svg version="1.1" id="Capa_1" xmlns="http://www.w3.org/2000/svg" xmlns:xlink="http://www.w3.org/1999/xlink" x="0px" y="0px"
	 viewBox="0 0 512 512" style="enable-background:new 0 0 512 512;" xml:space="preserve">
<polygon style="fill:#FFCE47;" points="400.999,372.565 361.001,402.565 361,323.131 331,323.131 331.001,462.566 370.999,432.566 
	370.999,511.999 400.999,511.999 "/>
<rect x="271" y="323.13" style="fill:#45A2E0;" width="30" height="30"/>
<rect x="211" y="323.13" style="fill:#4EB9FF;" width="30" height="30"/>
<rect x="271" y="383.13" style="fill:#45A2E0;" width="30" height="30"/>
<rect x="211" y="422" style="fill:#4EB9FF;" width="30" height="30"/>
<rect x="271" y="482" style="fill:#45A2E0;" width="30" height="30"/>
<g>
	<rect x="211" y="482" style="fill:#4EB9FF;" width="30" height="30"/>
	<rect x="51" y="422" style="fill:#4EB9FF;" width="30" height="30"/>
	<rect x="51" y="482" style="fill:#4EB9FF;" width="30" height="30"/>
</g>
<g>
	<rect x="446" y="422" style="fill:#45A2E0;" width="30" height="30"/>
	<rect x="446" y="482" style="fill:#45A2E0;" width="30" height="30"/>
</g>
<polygon style="fill:#FFE290;" points="141,511.999 111,511.999 111,372.565 151,402.565 151,323.131 181,323.131 181,462.566 
	141,432.566 "/>
<path style="fill:#FFA0C0;" d="M478.521,175.829c6.572-26.925,1.103-55.44-15.413-78.172c-16.363-22.523-41.98-36.691-69.578-38.804
	c-10.507-25.651-31.694-45.509-58.421-54.193c-9.517-3.092-19.375-4.66-29.302-4.66c-17.56,0-34.877,4.975-49.807,14.172
	l-90,124.456l90,124.456c13.695,18.232,35.494,30.047,60,30.047h61.021c14.064,18.696,36.317,30,59.979,30c41.355,0,75-33.645,75-75
	C512,220.033,499.664,193.749,478.521,175.829z"/>
<path style="fill:#FFC0D5;" d="M206.193,0.001c-9.926,0-19.785,1.568-29.301,4.66c-26.726,8.684-47.913,28.542-58.42,54.193
	c-27.599,2.113-53.216,16.281-69.58,38.804c-16.515,22.731-21.984,51.247-15.412,78.172C12.336,193.749,0,220.033,0,248.13
	c0,41.355,33.645,75,75,75c23.663,0,45.915-11.304,59.979-30H196c24.507,0,46.305-11.814,60-30.047V14.171
	C241.07,4.974,223.753,0.001,206.193,0.001z"/>
<g>
</g>
<g>
</g>
<g>
</g>
<g>
</g>
<g>
</g>
<g>
</g>
<g>
</g>
<g>
</g>
<g>
</g>
<g>
</g>
<g>
</g>
<g>
</g>
<g>
</g>
<g>
</g>
<g>
</g>
</svg>
